<?xml version="1.0" encoding="UTF-8"?>
<svg xmlns="http://www.w3.org/2000/svg" xmlns:xlink="http://www.w3.org/1999/xlink" width="5000" height="3000" viewBox="0 0 5000 3000">
<path fill-rule="evenodd" fill="rgb(99.21875%, 9.008789%, 9.008789%)" fill-opacity="1" d="M 567.375 2378.800781 C 567.375 1381.738281 1446.101562 571.039062 2530.058594 568.058594 C 3614.03125 565.078125 4492.75 1370.949219 4492.75 2368.011719 L 2530.058594 2373.40625 L 567.375 2378.800781 "/>
<path fill-rule="evenodd" fill="rgb(100%, 49.804688%, 0%)" fill-opacity="1" d="M 815.304688 2378.265625 C 815.304688 1496.238281 1584.988281 779.808594 2534.441406 778.078125 C 3483.898438 776.339844 4253.578125 1489.960938 4253.578125 2371.988281 L 2534.441406 2375.128906 L 815.304688 2378.265625 "/>
<path fill-rule="evenodd" fill="rgb(99.609375%, 81.639099%, 0%)" fill-opacity="1" d="M 1032.46875 2377.390625 C 1032.46875 1596.371094 1706.640625 962.621094 2538.28125 961.859375 C 3369.921875 961.109375 4044.089844 1593.648438 4044.089844 2374.667969 L 2538.28125 2376.027344 L 1032.46875 2377.390625 "/>
<path fill-rule="evenodd" fill="rgb(38.401794%, 74.021912%, 0%)" fill-opacity="1" d="M 1244.308594 2372.535156 C 1244.308594 1713.199219 1825.621094 1178.699219 2542.699219 1178.699219 C 3259.789062 1178.699219 3841.101562 1713.199219 3841.101562 2372.535156 L 1244.308594 2372.535156 "/>
<path fill-rule="evenodd" fill="rgb(0%, 53.318787%, 92.1875%)" fill-opacity="1" d="M 1477.910156 2371.914062 C 1477.910156 1822.539062 1954.191406 1377.191406 2541.699219 1377.191406 C 3129.21875 1377.191406 3605.488281 1822.539062 3605.488281 2371.914062 L 1477.910156 2371.914062 "/>
<path fill-rule="evenodd" fill="rgb(100%, 100%, 100%)" fill-opacity="1" d="M 1845.199219 2382.878906 C 1845.199219 2039.351562 2167.308594 1760.859375 2564.660156 1760.859375 C 2962 1760.859375 3284.109375 2039.351562 3284.109375 2382.878906 L 1845.199219 2382.878906 "/>
<path fill-rule="evenodd" fill="rgb(50.193787%, 6.298828%, 58.789062%)" fill-opacity="1" d="M 1699.289062 2374.398438 C 1699.289062 1935.089844 2076.449219 1578.949219 2541.699219 1578.949219 C 3006.949219 1578.949219 3384.109375 1935.089844 3384.109375 2374.398438 L 3173.511719 2374.398438 C 3173.511719 2044.914062 2890.640625 1777.820312 2541.699219 1777.820312 C 2192.761719 1777.820312 1909.890625 2044.914062 1909.890625 2374.398438 L 1699.289062 2374.398438 "/>
<path fill="none" stroke-width="2.4" stroke-linecap="round" stroke-linejoin="round" stroke="rgb(100%, 100%, 100%)" stroke-opacity="1" stroke-miterlimit="10" d="M 16992.890625 6256.015625 C 16992.890625 10649.101562 20764.492188 14210.507812 25416.992188 14210.507812 C 30069.492188 14210.507812 33841.09375 10649.101562 33841.09375 6256.015625 L 31735.117188 6256.015625 C 31735.117188 9550.859375 28906.40625 12221.796875 25416.992188 12221.796875 C 21927.617188 12221.796875 19098.90625 9550.859375 19098.90625 6256.015625 Z M 16992.890625 6256.015625 " transform="matrix(0.1, 0, 0, -0.1, 0, 3000)"/>
<path fill-rule="evenodd" fill="rgb(100%, 100%, 100%)" fill-opacity="1" d="M 4497.128906 2325.65625 L 502.867188 2325.65625 L 502.867188 2431.945312 L 4497.128906 2431.945312 L 4497.128906 2325.65625 "/>
</svg>
